<svg width="24" height="26" viewBox="0 0 24 26" fill="none" xmlns="http://www.w3.org/2000/svg">
<g clip-path="url(#clip0_1_481)">
<path fill-rule="evenodd" clip-rule="evenodd" d="M-0.91875 5.71691C-0.75492 4.98065 -0.352185 4.32327 0.223498 3.85242C0.79918 3.38158 1.51369 3.12519 2.25 3.12524H21.75C22.4863 3.12519 23.2008 3.38158 23.7765 3.85242C24.3522 4.32327 24.7549 4.98065 24.9187 5.71691L12 13.8152L-0.91875 5.71691ZM-1 7.62024V19.4602L8.42988 13.5302L-1 7.62024ZM9.98663 14.5086L-0.689625 21.2202C-0.425844 21.7907 -0.00951922 22.2726 0.510895 22.6099C1.03131 22.9471 1.63441 23.1258 2.25 23.1252H21.75C22.3655 23.1254 22.9684 22.9463 23.4885 22.6087C24.0086 22.2712 24.4246 21.7891 24.688 21.2186L14.0118 14.5069L12 15.7686L9.98663 14.5069V14.5086ZM15.5701 13.5319L25 19.4602V7.62024L15.5701 13.5302V13.5319Z" fill="#FF685B"/>
</g>
<defs>
<clipPath id="clip0_1_481">
<rect width="24" height="26" fill="white"/>
</clipPath>
</defs>
</svg>
