<svg width="23" height="23" viewBox="0 0 23 23" fill="none" xmlns="http://www.w3.org/2000/svg">
<path d="M20.6116 8.41927C20.554 8.24946 20.4478 8.10025 20.3064 7.99006C20.1649 7.87987 19.9942 7.81353 19.8155 7.79922L14.5863 7.38371L12.3235 2.3747C12.2514 2.21337 12.1342 2.07634 11.986 1.98016C11.8378 1.88397 11.6649 1.83274 11.4882 1.83264C11.3115 1.83254 11.1385 1.88359 10.9902 1.97961C10.8419 2.07563 10.7245 2.21253 10.6523 2.37378L8.38947 7.38371L3.16032 7.79922C2.98463 7.81314 2.81667 7.87738 2.67653 7.98425C2.53639 8.09113 2.43001 8.23612 2.37011 8.40187C2.31022 8.56762 2.29934 8.74712 2.33879 8.91889C2.37824 9.09066 2.46634 9.24743 2.59255 9.37044L6.45686 13.1375L5.09018 19.0555C5.04868 19.2347 5.06198 19.4221 5.12835 19.5936C5.19473 19.7651 5.31111 19.9127 5.46239 20.0172C5.61368 20.1217 5.79289 20.1783 5.97676 20.1797C6.16064 20.1811 6.34069 20.1272 6.49355 20.025L11.4879 16.6955L16.4822 20.025C16.6385 20.1288 16.8227 20.1822 17.0102 20.1781C17.1977 20.1739 17.3794 20.1125 17.531 20.002C17.6825 19.8916 17.7966 19.7373 17.8579 19.5601C17.9191 19.3828 17.9246 19.1911 17.8737 19.0106L16.196 13.1403L20.3566 9.39612C20.629 9.15031 20.729 8.7669 20.6116 8.41927V8.41927Z" fill="#F3CD03"/>
</svg>
