<svg width="23" height="23" viewBox="0 0 23 23" fill="none" xmlns="http://www.w3.org/2000/svg">
<path d="M20.6227 8.41927C20.565 8.24946 20.4589 8.10025 20.3174 7.99006C20.1759 7.87987 20.0053 7.81353 19.8265 7.79922L14.5974 7.38371L12.3345 2.3747C12.2625 2.21337 12.1453 2.07634 11.997 1.98016C11.8488 1.88397 11.6759 1.83274 11.4992 1.83264C11.3225 1.83254 11.1496 1.88359 11.0013 1.97961C10.8529 2.07563 10.7356 2.21253 10.6633 2.37378L8.40052 7.38371L3.17137 7.79922C2.99567 7.81314 2.82771 7.87738 2.68757 7.98425C2.54744 8.09113 2.44106 8.23612 2.38116 8.40187C2.32127 8.56762 2.31039 8.74712 2.34984 8.91889C2.38929 9.09066 2.47739 9.24743 2.6036 9.37044L6.4679 13.1375L5.10123 19.0555C5.05973 19.2347 5.07303 19.4221 5.1394 19.5936C5.20577 19.7651 5.32215 19.9127 5.47344 20.0172C5.62473 20.1217 5.80394 20.1783 5.98781 20.1797C6.17168 20.1811 6.35173 20.1272 6.50459 20.025L11.4989 16.6955L16.4933 20.025C16.6495 20.1288 16.8338 20.1822 17.0213 20.1781C17.2088 20.1739 17.3905 20.1125 17.542 20.002C17.6936 19.8916 17.8076 19.7373 17.8689 19.5601C17.9302 19.3828 17.9357 19.1911 17.8847 19.0106L16.2071 13.1403L20.3677 9.39612C20.6401 9.15031 20.7401 8.7669 20.6227 8.41927V8.41927Z" fill="#F3CD03"/>
</svg>
