<svg width="23" height="23" viewBox="0 0 23 23" fill="none" xmlns="http://www.w3.org/2000/svg">
<path d="M6.49772 13.1376L5.13104 19.0556C5.08872 19.2348 5.10143 19.4226 5.1675 19.5945C5.23357 19.7663 5.34993 19.9143 5.50139 20.019C5.65285 20.1237 5.83237 20.1803 6.0165 20.1814C6.20062 20.1825 6.3808 20.128 6.53349 20.0251L11.5278 16.6956L16.5222 20.0251C16.6784 20.1289 16.8627 20.1823 17.0502 20.1781C17.2377 20.174 17.4194 20.1126 17.5709 20.0021C17.7225 19.8916 17.8365 19.7374 17.8978 19.5602C17.9591 19.3829 17.9646 19.1911 17.9136 19.0107L16.236 13.1404L20.3966 9.39622C20.5298 9.27623 20.625 9.11982 20.6703 8.94632C20.7156 8.77283 20.709 8.58986 20.6515 8.42004C20.5939 8.25023 20.4878 8.10101 20.3463 7.99085C20.2048 7.88069 20.0342 7.81442 19.8554 7.80023L14.6263 7.3838L12.3634 2.37479C12.2913 2.2135 12.174 2.07654 12.0257 1.98043C11.8774 1.88433 11.7045 1.83319 11.5278 1.83319C11.3511 1.83319 11.1782 1.88433 11.0299 1.98043C10.8817 2.07654 10.7644 2.2135 10.6922 2.37479L8.42942 7.3838L3.20027 7.79931C3.02457 7.81323 2.85661 7.87747 2.71647 7.98434C2.57634 8.09122 2.46996 8.23621 2.41006 8.40196C2.35017 8.56771 2.33929 8.74721 2.37874 8.91898C2.41819 9.09075 2.50629 9.24752 2.6325 9.37053L6.49772 13.1376V13.1376ZM9.11459 9.16966C9.27831 9.15676 9.43555 9.10005 9.56982 9.00549C9.70408 8.91092 9.81044 8.78197 9.87773 8.63216L11.5278 4.98065L13.1779 8.63216C13.2452 8.78197 13.3516 8.91092 13.4858 9.00549C13.6201 9.10005 13.7774 9.15676 13.9411 9.16966L17.5843 9.45859L14.5841 12.1589C14.3236 12.3937 14.2199 12.7551 14.3153 13.0927L15.4646 17.1147L12.0378 14.8299C11.8874 14.729 11.7104 14.6751 11.5292 14.6751C11.3481 14.6751 11.171 14.729 11.0206 14.8299L7.43972 17.2175L8.40282 13.0477C8.43813 12.8944 8.43339 12.7345 8.38906 12.5835C8.34472 12.4325 8.26228 12.2954 8.14966 12.1855L5.3631 9.46868L9.11459 9.16966V9.16966Z" fill="#F3CD03"/>
</svg>
