<svg width="23" height="23" viewBox="0 0 23 23" fill="none" xmlns="http://www.w3.org/2000/svg">
<path d="M20.5967 8.41927C20.539 8.24946 20.4329 8.10025 20.2914 7.99006C20.1499 7.87987 19.9793 7.81353 19.8005 7.79922L14.5714 7.38371L12.3086 2.3747C12.2365 2.21337 12.1193 2.07634 11.9711 1.98016C11.8228 1.88397 11.65 1.83274 11.4733 1.83264C11.2966 1.83254 11.1236 1.88359 10.9753 1.97961C10.827 2.07563 10.7096 2.21253 10.6374 2.37378L8.37455 7.38371L3.14539 7.79922C2.9697 7.81314 2.80174 7.87738 2.6616 7.98425C2.52147 8.09113 2.41509 8.23612 2.35519 8.40187C2.2953 8.56762 2.28442 8.74712 2.32387 8.91889C2.36332 9.09066 2.45142 9.24743 2.57763 9.37044L6.44193 13.1375L5.07526 19.0555C5.03376 19.2347 5.04706 19.4221 5.11343 19.5936C5.1798 19.7651 5.29618 19.9127 5.44747 20.0172C5.59876 20.1217 5.77797 20.1783 5.96184 20.1797C6.14571 20.1811 6.32576 20.1272 6.47862 20.025L11.473 16.6955L16.4673 20.025C16.6235 20.1288 16.8078 20.1822 16.9953 20.1781C17.1828 20.1739 17.3645 20.1125 17.5161 20.002C17.6676 19.8916 17.7817 19.7373 17.8429 19.5601C17.9042 19.3828 17.9097 19.1911 17.8587 19.0106L16.1811 13.1403L20.3417 9.39612C20.6141 9.15031 20.7141 8.7669 20.5967 8.41927V8.41927Z" fill="#F3CD03"/>
</svg>
